<svg width="1141" height="578" viewBox="0 0 1141 578" fill="none" xmlns="http://www.w3.org/2000/svg">
<mask id="mask0_1603_369" style="mask-type:alpha" maskUnits="userSpaceOnUse" x="-108" y="-31" width="1442" height="641">
<rect x="-107.529" y="-30.7245" width="1440.91" height="640.405" fill="white"/>
</mask>
<g mask="url(#mask0_1603_369)">
<path d="M61.4491 0.000423461C66.6345 4.03524 70.9744 9.05189 74.221 14.7639C77.4677 20.476 79.5574 26.7716 80.371 33.2913C81.1846 39.8109 80.7061 46.427 78.9628 52.7618C77.2195 59.0965 74.2455 65.0259 70.2107 70.2113C66.1759 75.3967 61.1592 79.7366 55.4472 82.9832C49.7351 86.2299 43.4395 88.3196 36.9199 89.1332C30.4002 89.9468 23.7841 89.4683 17.4493 87.725C11.1146 85.9817 5.18524 83.0077 -0.000162339 78.9729L16.8697 57.2923C19.208 59.1117 21.8817 60.4528 24.7383 61.2389C27.5948 62.025 30.5782 62.2408 33.5182 61.8739C36.4581 61.507 39.297 60.5647 41.8727 59.1007C44.4485 57.6367 46.7107 55.6797 48.5301 53.3414C50.3495 51.0031 51.6906 48.3294 52.4767 45.4728C53.2628 42.6163 53.4786 39.6329 53.1117 36.693C52.7448 33.753 51.8025 30.9141 50.3385 28.3384C48.8745 25.7626 46.9175 23.5005 44.5792 21.681L61.4491 0.000423461Z" fill="#36B2F8"/>
<path d="M1141 102.142C1138.38 104.756 1135.27 106.83 1131.85 108.243C1128.43 109.656 1124.76 110.381 1121.06 110.377C1117.36 110.373 1113.69 109.64 1110.27 108.22C1106.85 106.799 1103.75 104.72 1101.13 102.099C1098.52 99.4789 1096.45 96.3691 1095.03 92.9475C1093.62 89.5259 1092.89 85.8595 1092.9 82.1576C1092.9 78.4557 1093.64 74.7908 1095.06 71.3722C1096.48 67.9537 1098.56 64.8483 1101.18 62.2334L1111.55 72.6291C1110.29 73.8817 1109.3 75.3692 1108.62 77.0068C1107.94 78.6444 1107.59 80.3999 1107.58 82.1732C1107.58 83.9465 1107.93 85.7028 1108.61 87.3418C1109.28 88.9808 1110.28 90.4705 1111.53 91.7257C1112.78 92.9809 1114.27 93.9772 1115.91 94.6575C1117.54 95.3378 1119.3 95.689 1121.07 95.6909C1122.85 95.6928 1124.6 95.3453 1126.24 94.6685C1127.88 93.9916 1129.37 92.9985 1130.63 91.746L1141 102.142Z" fill="#36B2F8"/>
<path d="M580.392 477.756C578.56 481.208 576.065 484.266 573.052 486.754C570.038 489.242 566.563 491.112 562.826 492.258C559.09 493.403 555.164 493.801 551.274 493.43C547.383 493.058 543.604 491.924 540.152 490.091C536.699 488.259 533.642 485.765 531.154 482.751C528.665 479.737 526.795 476.262 525.65 472.526C524.504 468.789 524.106 464.863 524.478 460.973C524.85 457.082 525.984 453.303 527.816 449.851L541.965 457.36C541.119 458.954 540.595 460.7 540.423 462.496C540.252 464.293 540.435 466.106 540.964 467.831C541.493 469.557 542.357 471.161 543.506 472.553C544.655 473.945 546.067 475.097 547.661 475.943C549.255 476.789 551 477.313 552.797 477.484C554.594 477.656 556.406 477.472 558.132 476.943C559.858 476.414 561.462 475.551 562.854 474.402C564.246 473.253 565.397 471.841 566.243 470.246L580.392 477.756Z" fill="#36B2F8"/>
<circle cx="491.349" cy="72.841" r="19.5123" fill="#F86338"/>
<circle cx="1116.24" cy="365.526" r="9.0057" fill="#F86338"/>
<circle cx="961.146" cy="572.657" r="5.00316" fill="#F86338"/>
<circle cx="16.0487" cy="438.072" r="4.50285" fill="#F86338"/>
</g>
</svg>
