<svg width="32" height="32" viewBox="0 0 32 32" fill="none" xmlns="http://www.w3.org/2000/svg">
<path d="M15.9996 28.7609L4.68631 17.4476C3.18589 15.9473 2.3429 13.9125 2.34277 11.7907C2.34265 9.66893 3.1854 7.634 4.68565 6.13358C6.18589 4.63316 8.22072 3.79016 10.3425 3.79004C12.4643 3.78991 14.4992 4.63267 15.9996 6.13291C17.5008 4.63437 19.5352 3.79271 21.6563 3.79271C23.7774 3.79271 25.8118 4.63437 27.313 6.13291V6.13291C28.8109 7.6344 29.6521 9.66869 29.6521 11.7896C29.6521 13.9105 28.8109 15.9448 27.313 17.4462L15.9996 28.7609ZM10.3423 6.45691C9.28737 6.45687 8.25611 6.76969 7.37897 7.35581C6.50184 7.94192 5.81822 8.775 5.41459 9.74968C5.01096 10.7243 4.90546 11.7968 5.11141 12.8315C5.31737 13.8661 5.82554 14.8164 6.57165 15.5622L15.9996 24.9902L25.4276 15.5622C25.9692 15.0328 26.3917 14.3941 26.6672 13.6886C26.9426 12.9831 27.0647 12.2271 27.0252 11.4708C26.9857 10.7145 26.7856 9.97524 26.4382 9.30228C26.0908 8.62932 25.6041 8.03807 25.0104 7.56786C24.4167 7.09766 23.7297 6.75929 22.995 6.57527C22.2604 6.39126 21.495 6.36581 20.7497 6.50063C20.0045 6.63544 19.2965 6.92743 18.6729 7.35716C18.0493 7.7869 17.5243 8.34451 17.133 8.99291L15.9996 10.8222L14.8663 8.99291C14.3985 8.21296 13.7349 7.56885 12.9413 7.12447C12.1477 6.6801 11.2518 6.45089 10.3423 6.45958V6.45691Z" fill="black"/>
</svg>
