<svg width="20" height="20" viewBox="0 0 20 20" fill="none" xmlns="http://www.w3.org/2000/svg">
<path d="M20 18.5683L16.272 14.8403C17.7301 13.0162 18.4343 10.703 18.2401 8.37591C18.0458 6.04879 16.9678 3.88439 15.2275 2.32731C13.4871 0.770239 11.2166 -0.0612935 8.88229 0.0035234C6.54797 0.0683403 4.32708 1.02459 2.67584 2.67584C1.02459 4.32708 0.0683403 6.54797 0.0035234 8.88229C-0.0612935 11.2166 0.770239 13.4871 2.32731 15.2275C3.88439 16.9678 6.04879 18.0458 8.37591 18.2401C10.703 18.4343 13.0162 17.7301 14.8403 16.272L18.5683 20L20 18.5683ZM9.15908 16.2466C7.7573 16.2466 6.38699 15.831 5.22145 15.0522C4.0559 14.2734 3.14747 13.1665 2.61103 11.8714C2.07459 10.5763 1.93424 9.15122 2.20771 7.77637C2.48119 6.40152 3.15621 5.13864 4.14742 4.14742C5.13864 3.15621 6.40152 2.48119 7.77637 2.20771C9.15122 1.93424 10.5763 2.07459 11.8714 2.61103C13.1665 3.14747 14.2734 4.0559 15.0522 5.22145C15.831 6.38699 16.2466 7.7573 16.2466 9.15908C16.2445 11.0382 15.4971 12.8397 14.1684 14.1684C12.8397 15.4971 11.0382 16.2445 9.15908 16.2466Z" fill="#9A9AB0"/>
</svg>
