<svg width="1159" height="443" viewBox="0 0 1159 443" fill="none" xmlns="http://www.w3.org/2000/svg">
<mask id="mask0_1615_3134" style="mask-type:alpha" maskUnits="userSpaceOnUse" x="-108" y="-31" width="1442" height="513">
<rect x="-107.528" y="-30.7242" width="1440.9" height="512.319" fill="white"/>
</mask>
<g mask="url(#mask0_1615_3134)">
<path d="M61.449 0.000423457C66.6343 4.0352 70.9742 9.0518 74.2208 14.7638C77.4674 20.4758 79.5571 26.7713 80.3707 33.2909C81.1843 39.8106 80.7058 46.4266 78.9625 52.7613C77.2192 59.0959 74.2453 65.0252 70.2105 70.2106C66.1757 75.396 61.1591 79.7358 55.4471 82.9824C49.7351 86.229 43.4396 88.3188 36.92 89.1324C30.4004 89.9459 23.7843 89.4674 17.4497 87.7241C11.115 85.9808 5.18568 83.0069 0.000326248 78.9721L16.8701 57.2917C19.2083 59.1111 21.882 60.4522 24.7385 61.2383C27.595 62.0244 30.5784 62.2402 33.5183 61.8733C36.4582 61.5064 39.2971 60.5641 41.8728 59.1001C44.4485 57.6361 46.7107 55.6791 48.5301 53.3409C50.3495 51.0026 51.6906 48.3289 52.4767 45.4724C53.2628 42.6159 53.4785 39.6325 53.1117 36.6926C52.7448 33.7527 51.8025 30.9138 50.3385 28.3381C48.8745 25.7624 46.9175 23.5002 44.5792 21.6808L61.449 0.000423457Z" fill="#36B2F8"/>
<path d="M1159 66.1182C1156.38 68.733 1153.27 70.8061 1149.85 72.2191C1146.43 73.6321 1142.76 74.3574 1139.06 74.3534C1135.36 74.3495 1131.69 73.6165 1128.27 72.1962C1124.86 70.7759 1121.75 68.6962 1119.13 66.0759C1116.52 63.4555 1114.45 60.3457 1113.03 56.9241C1111.62 53.5026 1110.9 49.8362 1110.9 46.1344C1110.9 42.4325 1111.64 38.7677 1113.06 35.3491C1114.48 31.9306 1116.56 28.8252 1119.18 26.2104L1129.55 36.606C1128.3 37.8585 1127.3 39.346 1126.62 40.9836C1125.94 42.6212 1125.59 44.3767 1125.59 46.15C1125.58 47.9232 1125.93 49.6795 1126.61 51.3185C1127.28 52.9575 1128.28 54.4471 1129.53 55.7024C1130.78 56.9576 1132.27 57.9538 1133.91 58.6341C1135.55 59.3145 1137.3 59.6656 1139.07 59.6675C1140.85 59.6694 1142.6 59.322 1144.24 58.6451C1145.88 57.9683 1147.37 56.9752 1148.63 55.7226L1159 66.1182Z" fill="#36B2F8"/>
<path d="M495.334 411.71C493.502 415.162 491.007 418.22 487.993 420.708C484.98 423.196 481.505 425.066 477.768 426.212C474.032 427.357 470.106 427.755 466.216 427.384C462.325 427.012 458.546 425.878 455.094 424.045C451.642 422.213 448.584 419.719 446.096 416.705C443.608 413.691 441.738 410.217 440.592 406.48C439.447 402.743 439.049 398.818 439.42 394.927C439.792 391.037 440.926 387.257 442.759 383.805L456.907 391.315C456.061 392.909 455.537 394.654 455.365 396.451C455.194 398.247 455.378 400.06 455.907 401.785C456.436 403.511 457.299 405.115 458.448 406.507C459.597 407.899 461.009 409.051 462.603 409.897C464.197 410.743 465.943 411.267 467.739 411.438C469.536 411.61 471.349 411.426 473.074 410.897C474.8 410.368 476.404 409.505 477.796 408.356C479.188 407.207 480.339 405.795 481.185 404.201L495.334 411.71Z" fill="#36B2F8"/>
<circle cx="491.345" cy="72.8403" r="19.5121" fill="#F86338"/>
<circle cx="1116.23" cy="365.523" r="9.00561" fill="#F86338"/>
<circle cx="783.027" cy="422.558" r="5.00312" fill="#F86338"/>
<circle cx="16.0491" cy="438.068" r="4.5028" fill="#F86338"/>
</g>
</svg>
