<svg width="32" height="32" viewBox="0 0 32 32" fill="none" xmlns="http://www.w3.org/2000/svg">
<path d="M15.9997 16.0003C17.3182 16.0003 18.6071 15.6093 19.7035 14.8768C20.7998 14.1442 21.6543 13.1031 22.1589 11.8849C22.6635 10.6667 22.7955 9.32627 22.5382 8.03306C22.281 6.73985 21.6461 5.55197 20.7137 4.61962C19.7814 3.68727 18.5935 3.05233 17.3003 2.79509C16.0071 2.53786 14.6666 2.66988 13.4485 3.17446C12.2303 3.67905 11.1891 4.53353 10.4565 5.62986C9.724 6.72619 9.33301 8.01512 9.33301 9.33366C9.33512 11.1011 10.0382 12.7956 11.288 14.0454C12.5378 15.2952 14.2322 15.9982 15.9997 16.0003V16.0003ZM15.9997 5.33366C16.7908 5.33366 17.5642 5.56826 18.222 6.00778C18.8798 6.44731 19.3924 7.07202 19.6952 7.80293C19.9979 8.53383 20.0772 9.3381 19.9228 10.114C19.7685 10.8899 19.3875 11.6027 18.8281 12.1621C18.2687 12.7215 17.556 13.1025 16.78 13.2568C16.0041 13.4111 15.1998 13.3319 14.4689 13.0292C13.738 12.7264 13.1133 12.2137 12.6738 11.5559C12.2343 10.8981 11.9997 10.1248 11.9997 9.33366C11.9997 8.2728 12.4211 7.25538 13.1712 6.50523C13.9214 5.75509 14.9388 5.33366 15.9997 5.33366V5.33366Z" fill="black"/>
<path d="M27.9815 26.4465C27.4008 23.7474 25.8738 21.3451 23.6764 19.6737C21.479 18.0023 18.7562 17.1721 16.0001 17.3332C13.244 17.1721 10.5212 18.0023 8.32381 19.6737C6.12642 21.3451 4.59942 23.7474 4.01879 26.4465L3.75879 27.9998H28.2415L27.9815 26.4465ZM7.13079 25.3332C7.99079 23.2998 10.2668 19.9998 16.0001 19.9998C21.6815 19.9998 23.9775 23.2972 24.8548 25.3332H7.13079Z" fill="black"/>
</svg>
